<svg xmlns="http://www.w3.org/2000/svg" width="540" height="340" viewBox="0 0 540 340" role="img" aria-label="Donut chart of most used programming languages for KodEx-SA">
<title>Most Used Languages — KodEx-SA</title>
<rect width="540" height="340" rx="12" fill="#0d1117" stroke="#21262d" stroke-width="1"/>
<text x="20" y="26" font-family="monospace" font-size="11" fill="#34eb5c" letter-spacing="2" opacity="0.85">MOST USED LANGUAGES</text>
<line x1="20" y1="33" x2="520" y2="33" stroke="#21262d" stroke-width="0.8"/>
<path d="M 109.431,88.012 A 82,82 0 0,1 159.791,233.574 L 143.369,213.417 A 56,56 0 0,0 108.977,114.009 Z" fill="#3178C6"/>
<path d="M 157.541,235.343 A 82,82 0 0,1 59.015,235.761 L 74.547,214.910 A 56,56 0 0,0 141.833,214.625 Z" fill="#F7DF1E"/>
<path d="M 56.750,234.011 A 82,82 0 0,1 29.658,145.782 L 54.498,153.461 A 56,56 0 0,0 73.000,213.715 Z" fill="#E34C26"/>
<path d="M 30.551,143.062 A 82,82 0 0,1 71.900,96.374 L 83.346,119.719 A 56,56 0 0,0 55.108,151.603 Z" fill="#563D7C"/>
<path d="M 74.491,95.159 A 82,82 0 0,1 102.840,88.163 L 104.476,114.111 A 56,56 0 0,0 85.116,118.889 Z" fill="#3572A5"/>
<text x="108" y="158" text-anchor="middle" font-family="monospace" font-size="10" fill="#8b949e">TOP</text>
<text x="108" y="180" text-anchor="middle" font-family="monospace" font-size="28" font-weight="bold" fill="#34eb5c">9</text>
<text x="108" y="196" text-anchor="middle" font-family="monospace" font-size="9" fill="#8b949e">LANGS</text>
<line x1="195" y1="40" x2="195" y2="320" stroke="#21262d" stroke-width="0.8"/>
<circle cx="220" cy="52" r="5" fill="#3178C6"/>
<text x="233" y="57" font-family="monospace" font-size="12" fill="#e6edf3">TypeScript</text>
<rect x="370" y="48" width="115" height="7" rx="3" fill="#161b22"/>
<rect x="370" y="48" width="45.31" height="7" rx="3" fill="#3178C6"/>
<text x="493" y="57" font-family="monospace" font-size="11" fill="#3178C6">39.4%</text>
<circle cx="220" cy="80" r="5" fill="#F7DF1E"/>
<text x="233" y="85" font-family="monospace" font-size="12" fill="#e6edf3">JavaScript</text>
<rect x="370" y="76" width="115" height="7" rx="3" fill="#161b22"/>
<rect x="370" y="76" width="24.23" height="7" rx="3" fill="#F7DF1E"/>
<text x="493" y="85" font-family="monospace" font-size="11" fill="#F7DF1E">21.1%</text>
<circle cx="220" cy="108" r="5" fill="#E34C26"/>
<text x="233" y="113" font-family="monospace" font-size="12" fill="#e6edf3">HTML</text>
<rect x="370" y="104" width="115" height="7" rx="3" fill="#161b22"/>
<rect x="370" y="104" width="22.52" height="7" rx="3" fill="#E34C26"/>
<text x="493" y="113" font-family="monospace" font-size="11" fill="#E34C26">19.6%</text>
<circle cx="220" cy="136" r="5" fill="#563D7C"/>
<text x="233" y="141" font-family="monospace" font-size="12" fill="#e6edf3">CSS</text>
<rect x="370" y="132" width="115" height="7" rx="3" fill="#161b22"/>
<rect x="370" y="132" width="14.92" height="7" rx="3" fill="#563D7C"/>
<text x="493" y="141" font-family="monospace" font-size="11" fill="#563D7C">13.0%</text>
<circle cx="220" cy="164" r="5" fill="#3572A5"/>
<text x="233" y="169" font-family="monospace" font-size="12" fill="#e6edf3">Python</text>
<rect x="370" y="160" width="115" height="7" rx="3" fill="#161b22"/>
<rect x="370" y="160" width="7.19" height="7" rx="3" fill="#3572A5"/>
<text x="493" y="169" font-family="monospace" font-size="11" fill="#3572A5">6.3%</text>
<circle cx="220" cy="192" r="5" fill="#89E051"/>
<text x="233" y="197" font-family="monospace" font-size="12" fill="#e6edf3">Shell</text>
<rect x="370" y="188" width="115" height="7" rx="3" fill="#161b22"/>
<text x="493" y="197" font-family="monospace" font-size="11" fill="#89E051">0.2%</text>
<circle cx="220" cy="220" r="5" fill="#945DB7"/>
<text x="233" y="225" font-family="monospace" font-size="12" fill="#e6edf3">Visual Basic .NET</text>
<rect x="370" y="216" width="115" height="7" rx="3" fill="#161b22"/>
<text x="493" y="225" font-family="monospace" font-size="11" fill="#945DB7">0.2%</text>
<circle cx="220" cy="248" r="5" fill="#178600"/>
<text x="233" y="253" font-family="monospace" font-size="12" fill="#e6edf3">C#</text>
<rect x="370" y="244" width="115" height="7" rx="3" fill="#161b22"/>
<text x="493" y="253" font-family="monospace" font-size="11" fill="#178600">0.1%</text>
<circle cx="220" cy="276" r="5" fill="#6E7681"/>
<text x="233" y="281" font-family="monospace" font-size="12" fill="#e6edf3">Other</text>
<rect x="370" y="272" width="115" height="7" rx="3" fill="#161b22"/>
<text x="493" y="281" font-family="monospace" font-size="11" fill="#6E7681">0.2%</text>
<rect x="215.00" y="302" width="114.25" height="5" fill="#3178C6"/>
<rect x="329.25" y="302" width="61.10" height="5" fill="#F7DF1E"/>
<rect x="390.36" y="302" width="56.79" height="5" fill="#E34C26"/>
<rect x="447.14" y="302" width="37.62" height="5" fill="#563D7C"/>
<rect x="484.76" y="302" width="18.13" height="5" fill="#3572A5"/>
<text x="215" y="323" font-family="monospace" font-size="9" fill="#484f58">auto-updated · excludes forks &amp; markup</text>
</svg>