<svg xmlns="http://www.w3.org/2000/svg" width="540" height="340" viewBox="0 0 540 340" role="img" aria-label="Donut chart of most used programming languages for KodEx-SA">
<title>Most Used Languages — KodEx-SA</title>
<rect width="540" height="340" rx="10" fill="#0a0a0a" stroke="#00c9c9" stroke-width="1"/>
<text x="20" y="26" font-family="'Segoe UI', Ubuntu, sans-serif" font-size="13" font-weight="600" fill="#00c9c9" letter-spacing="1">Most Used Languages</text>
<line x1="20" y1="33" x2="520" y2="33" stroke="#003d4d" stroke-width="0.8"/>
<path d="M 109.431,88.012 A 82,82 0 0,1 185.601,196.497 L 160.996,188.096 A 56,56 0 0,0 108.977,114.009 Z" fill="#3178C6"/>
<path d="M 184.629,199.189 A 82,82 0 0,1 114.211,251.764 L 112.242,225.839 A 56,56 0 0,0 160.332,189.934 Z" fill="#F7DF1E"/>
<path d="M 111.354,251.931 A 82,82 0 0,1 38.536,213.575 L 60.561,199.758 A 56,56 0 0,0 110.290,225.953 Z" fill="#00c9c9"/>
<path d="M 37.058,211.124 A 82,82 0 0,1 31.976,139.270 L 56.081,149.013 A 56,56 0 0,0 59.552,198.085 Z" fill="#E34C26"/>
<path d="M 33.095,136.635 A 82,82 0 0,1 64.634,100.405 L 78.384,122.472 A 56,56 0 0,0 56.845,147.214 Z" fill="#563D7C"/>
<path d="M 67.089,98.934 A 82,82 0 0,1 93.231,89.341 L 97.914,114.916 A 56,56 0 0,0 80.061,121.467 Z" fill="#3572A5"/>
<path d="M 96.055,88.875 A 82,82 0 0,1 97.570,88.666 L 100.877,114.455 A 56,56 0 0,0 99.843,114.597 Z" fill="#00B4AB"/>
<path d="M 102.874,88.160 A 82,82 0 0,1 106.569,88.012 L 107.023,114.009 A 56,56 0 0,0 104.499,114.110 Z" fill="#6E7681"/>
<text x="108" y="158" text-anchor="middle" font-family="monospace" font-size="10" fill="#006e8a">TOP</text>
<text x="108" y="180" text-anchor="middle" font-family="monospace" font-size="28" font-weight="bold" fill="#00c9c9">9</text>
<text x="108" y="196" text-anchor="middle" font-family="monospace" font-size="9" fill="#006e8a">LANGS</text>
<line x1="195" y1="40" x2="195" y2="320" stroke="#003d4d" stroke-width="0.8"/>
<circle cx="220" cy="52" r="5" fill="#3178C6"/>
<text x="233" y="57" font-family="'Segoe UI', Ubuntu, sans-serif" font-size="12" fill="#e0f7fa">TypeScript</text>
<rect x="370" y="48" width="115" height="7" rx="3" fill="#0d2a33"/>
<rect x="370" y="48" width="35.09" height="7" rx="3" fill="#3178C6"/>
<text x="493" y="57" font-family="monospace" font-size="11" fill="#3178C6">30.5%</text>
<circle cx="220" cy="80" r="5" fill="#F7DF1E"/>
<text x="233" y="85" font-family="'Segoe UI', Ubuntu, sans-serif" font-size="12" fill="#e0f7fa">JavaScript</text>
<rect x="370" y="76" width="115" height="7" rx="3" fill="#0d2a33"/>
<rect x="370" y="76" width="21.34" height="7" rx="3" fill="#F7DF1E"/>
<text x="493" y="85" font-family="monospace" font-size="11" fill="#F7DF1E">18.6%</text>
<circle cx="220" cy="108" r="5" fill="#00c9c9"/>
<text x="233" y="113" font-family="'Segoe UI', Ubuntu, sans-serif" font-size="12" fill="#e0f7fa">Solidity</text>
<rect x="370" y="104" width="115" height="7" rx="3" fill="#0d2a33"/>
<rect x="370" y="104" width="19.88" height="7" rx="3" fill="#00c9c9"/>
<text x="493" y="113" font-family="monospace" font-size="11" fill="#00c9c9">17.3%</text>
<circle cx="220" cy="136" r="5" fill="#E34C26"/>
<text x="233" y="141" font-family="'Segoe UI', Ubuntu, sans-serif" font-size="12" fill="#e0f7fa">HTML</text>
<rect x="370" y="132" width="115" height="7" rx="3" fill="#0d2a33"/>
<rect x="370" y="132" width="17.29" height="7" rx="3" fill="#E34C26"/>
<text x="493" y="141" font-family="monospace" font-size="11" fill="#E34C26">15.0%</text>
<circle cx="220" cy="164" r="5" fill="#563D7C"/>
<text x="233" y="169" font-family="'Segoe UI', Ubuntu, sans-serif" font-size="12" fill="#e0f7fa">CSS</text>
<rect x="370" y="160" width="115" height="7" rx="3" fill="#0d2a33"/>
<rect x="370" y="160" width="11.52" height="7" rx="3" fill="#563D7C"/>
<text x="493" y="169" font-family="monospace" font-size="11" fill="#563D7C">10.0%</text>
<circle cx="220" cy="192" r="5" fill="#3572A5"/>
<text x="233" y="197" font-family="'Segoe UI', Ubuntu, sans-serif" font-size="12" fill="#e0f7fa">Python</text>
<rect x="370" y="188" width="115" height="7" rx="3" fill="#0d2a33"/>
<rect x="370" y="188" width="6.88" height="7" rx="3" fill="#3572A5"/>
<text x="493" y="197" font-family="monospace" font-size="11" fill="#3572A5">6.0%</text>
<circle cx="220" cy="220" r="5" fill="#00B4AB"/>
<text x="233" y="225" font-family="'Segoe UI', Ubuntu, sans-serif" font-size="12" fill="#e0f7fa">Dart</text>
<rect x="370" y="216" width="115" height="7" rx="3" fill="#0d2a33"/>
<text x="493" y="225" font-family="monospace" font-size="11" fill="#00B4AB">0.9%</text>
<circle cx="220" cy="248" r="5" fill="#F34B7D"/>
<text x="233" y="253" font-family="'Segoe UI', Ubuntu, sans-serif" font-size="12" fill="#e0f7fa">C++</text>
<rect x="370" y="244" width="115" height="7" rx="3" fill="#0d2a33"/>
<text x="493" y="253" font-family="monospace" font-size="11" fill="#F34B7D">0.5%</text>
<circle cx="220" cy="276" r="5" fill="#6E7681"/>
<text x="233" y="281" font-family="'Segoe UI', Ubuntu, sans-serif" font-size="12" fill="#e0f7fa">Other</text>
<rect x="370" y="272" width="115" height="7" rx="3" fill="#0d2a33"/>
<rect x="370" y="272" width="1.46" height="7" rx="3" fill="#6E7681"/>
<text x="493" y="281" font-family="monospace" font-size="11" fill="#6E7681">1.3%</text>
<rect x="215.00" y="302" width="88.49" height="5" fill="#3178C6"/>
<rect x="303.49" y="302" width="53.81" height="5" fill="#F7DF1E"/>
<rect x="357.31" y="302" width="50.14" height="5" fill="#00c9c9"/>
<rect x="407.45" y="302" width="43.59" height="5" fill="#E34C26"/>
<rect x="451.04" y="302" width="29.05" height="5" fill="#563D7C"/>
<rect x="480.09" y="302" width="17.36" height="5" fill="#3572A5"/>
<rect x="497.45" y="302" width="2.47" height="5" fill="#00B4AB"/>
<rect x="499.92" y="302" width="1.39" height="5" fill="#F34B7D"/>
<rect x="501.31" y="302" width="3.69" height="5" fill="#6E7681"/>
<text x="215" y="323" font-family="monospace" font-size="9" fill="#004d5c">auto-updated · excludes forks &amp; markup</text>
</svg>